<svg xmlns="http://www.w3.org/2000/svg" width="32.253" height="19.067" viewBox="0 0 32.253 19.067">
  <g id="Gruppe_63" data-name="Gruppe 63" transform="translate(-154.753 -30.121)">
    <path id="Pfad_152" data-name="Pfad 152" d="M529.074,46.87l7.386-11.35h-4.671L524.22,46.867v3.757h10.208v3.964h4.1V46.87Z" transform="translate(-351.518 -5.399)" fill="#fff"/>
    <path id="Pfad_153" data-name="Pfad 153" d="M470.467,41.558c-.243,0-1.452,0-2.8-.006v-2.2h8.7V35.53H463.54v6.013h0v3.884h6.924A2.516,2.516,0,0,1,473.2,48.06h0a2.516,2.516,0,0,1-2.733,2.633H463.54v3.884s6.333-.015,6.924-.015c4.747,0,6.91-3.345,6.91-6.451v-.1c0-3.106-2.162-6.451-6.91-6.451Z" transform="translate(-308.787 -5.406)" fill="#fff"/>
  </g>
</svg>
