<svg xmlns="http://www.w3.org/2000/svg" width="114.948" height="115.016" viewBox="0 0 114.948 115.016">
  <path id="Pfad_24" data-name="Pfad 24" d="M586.13,740.49v32.16h44.71V740.49l-22.36-20.33Zm51.94-1V772.7h15.31a51.1,51.1,0,0,0,5.14-22.78c0-13.83-4.77-25.84-14.57-35.66a49.48,49.48,0,0,0-70.74,0c-9.8,9.82-14.58,21.83-14.57,35.66a49.24,49.24,0,0,0,14.57,35.8,48.4,48.4,0,0,0,35.37,14.74,49.66,49.66,0,0,0,22.26-5.11V783.07h7.23v14.19a2.96,2.96,0,0,1-1.42,2.92,57.61,57.61,0,0,1-68.85-90.94c11.29-11.29,24.82-16.85,40.78-16.84a55.31,55.31,0,0,1,40.63,16.84c11.23,11.25,16.85,24.73,16.84,40.63A55.73,55.73,0,0,1,658.87,778a3.09,3.09,0,0,1-3.18,1.9H582.38a3.17,3.17,0,0,1-3.48-3.48v-37a3.78,3.78,0,0,1,.62-2.24,4.69,4.69,0,0,1,.94-1.31l24.87-22.63a4.82,4.82,0,0,1,2-1.6,2.57,2.57,0,0,1,1.15-.27,2.359,2.359,0,0,1,.86.15,5.048,5.048,0,0,1,2.29,1.72l25,22.69a5.268,5.268,0,0,1,.85,1.19,4,4,0,0,1,.59,2.32Zm-30.7-27.79a2.849,2.849,0,0,1,1.11-.26,2.421,2.421,0,0,0-1.11.21Zm1.19-.26a2.614,2.614,0,0,1,.78.15,2.21,2.21,0,0,0-.78-.2Z" transform="translate(-551.107 -692.393)" fill="#fcb813"/>
</svg>
