<svg id="Layer_1" data-name="Layer 1" xmlns="http://www.w3.org/2000/svg" viewBox="0 0 891.77 114.94"><defs><style>.cls-1{fill:#231f20;fill-rule:evenodd;}.cls-2{fill:#fcb813;}</style></defs><path class="cls-1" d="M304.55,782.07a2.66,2.66,0,0,0,1.56,2.67,3.61,3.61,0,0,0,3.05,0,2.66,2.66,0,0,0,1.56-2.67V718.6a2.65,2.65,0,0,0-1.56-2.66,3.61,3.61,0,0,0-3.05,0,2.65,2.65,0,0,0-1.56,2.66Z" transform="translate(-304.55 -692.4)"/><path class="cls-1" d="M411,718.6a3,3,0,0,0-2-2.83,3.11,3.11,0,0,0-3.39.65l-28.74,28.74-28.84-28.74a3.1,3.1,0,0,0-5.26,2.18v63.47a2.66,2.66,0,0,0,1.56,2.67,3.61,3.61,0,0,0,3,0,2.66,2.66,0,0,0,1.56-2.67v-56l25.74,25.82a3.13,3.13,0,0,0,4.37,0l25.74-25.82v56a2.66,2.66,0,0,0,1.56,2.67,3.61,3.61,0,0,0,3.05,0,2.66,2.66,0,0,0,1.56-2.67Z" transform="translate(-304.55 -692.4)"/><path class="cls-1" d="M515.89,718.6a3.05,3.05,0,0,0-2-2.83,3.11,3.11,0,0,0-3.39.65l-28.74,28.74L453,716.42a3.09,3.09,0,0,0-5.26,2.18v63.47a2.66,2.66,0,0,0,1.56,2.67,3.61,3.61,0,0,0,3.05,0,2.66,2.66,0,0,0,1.56-2.67v-56l25.74,25.82a3.11,3.11,0,0,0,4.36,0l25.75-25.82v56a2.66,2.66,0,0,0,1.56,2.67,3.61,3.61,0,0,0,3.05,0,2.66,2.66,0,0,0,1.56-2.67Z" transform="translate(-304.55 -692.4)"/><path class="cls-1" d="M700.8,782.07a2.66,2.66,0,0,0,1.56,2.67,3.61,3.61,0,0,0,3,0,2.66,2.66,0,0,0,1.56-2.67V718.6a2.65,2.65,0,0,0-1.56-2.66,3.61,3.61,0,0,0-3,0,2.65,2.65,0,0,0-1.56,2.66Zm11.17-34a2.84,2.84,0,0,0,0,4.36l31.65,31.82a3.39,3.39,0,0,0,2.25.89,2.92,2.92,0,0,0,2.11-.89,2.82,2.82,0,0,0,0-4.36l-29.37-29.55,29.46-29.46a2.87,2.87,0,0,0,.84-2.16,3.65,3.65,0,0,0-.93-2.3,3.43,3.43,0,0,0-2.25-.88,3,3,0,0,0-2.11.88Z" transform="translate(-304.55 -692.4)"/><path class="cls-1" d="M811,722.42a14.74,14.74,0,0,1,5.89,1.15,15.36,15.36,0,0,1,4.94,3.4,14.79,14.79,0,0,1,3.35,5,16.66,16.66,0,0,1,0,12,14.73,14.73,0,0,1-3.35,5,14.88,14.88,0,0,1-4.94,3.35,15.26,15.26,0,0,1-5.89,1.11H787.6v-31Zm-29.54,59.65a2.66,2.66,0,0,0,1.55,2.66,3.64,3.64,0,0,0,3.06,0,2.67,2.67,0,0,0,1.56-2.66V759.61h24.47l11.73,23.46a2.89,2.89,0,0,0,3,2.09,3,3,0,0,0,2.19-.9,3.07,3.07,0,0,0,.9-2.19,3,3,0,0,0-.55-1.73l-10.9-22a22,22,0,0,0,10.26-7.93,21.45,21.45,0,0,0-2.44-27.81,21.8,21.8,0,0,0-7-4.78,21.47,21.47,0,0,0-8.26-1.57H784.51a3,3,0,0,0-3.08,3.08Z" transform="translate(-304.55 -692.4)"/><path class="cls-1" d="M864.24,781.35a3.16,3.16,0,0,0,.9,2.19,3.11,3.11,0,0,0,2.19.89h43.46a3.06,3.06,0,0,0,3.1-3.08,3,3,0,0,0-.9-2.09,3.35,3.35,0,0,0-2.2-1H870.42V753.52h34.1a2.69,2.69,0,0,0,2.67-1.56,3.71,3.71,0,0,0,0-3.06,2.7,2.7,0,0,0-2.67-1.56h-34.1V722.42h40.37a2.66,2.66,0,0,0,2.67-1.56,3.61,3.61,0,0,0,0-3.05,2.66,2.66,0,0,0-2.67-1.56H867.33a3.11,3.11,0,0,0-2.19.89,3.16,3.16,0,0,0-.9,2.19Z" transform="translate(-304.55 -692.4)"/><path class="cls-1" d="M948.26,782.07a2.66,2.66,0,0,0,1.56,2.67,3.61,3.61,0,0,0,3,0,2.66,2.66,0,0,0,1.56-2.67V718.6a2.65,2.65,0,0,0-1.56-2.66,3.61,3.61,0,0,0-3,0,2.65,2.65,0,0,0-1.56,2.66Z" transform="translate(-304.55 -692.4)"/><path class="cls-1" d="M984.68,776a3.23,3.23,0,0,0,.33,1.51,2.68,2.68,0,0,0,1,1,35.54,35.54,0,0,0,10.5,5.6,38,38,0,0,0,11.95,1.85,23.61,23.61,0,0,0,16.1-5.72,19.8,19.8,0,0,0,5-6.43,17.81,17.81,0,0,0,1.65-7.67,17.63,17.63,0,0,0-4.64-11.94,24.24,24.24,0,0,0-12.08-7L1003,744.34a16.66,16.66,0,0,1-7.63-4.25,10.12,10.12,0,0,1-2.92-7.12,10.4,10.4,0,0,1,1.08-4.7,12.39,12.39,0,0,1,3.2-3.94,14.68,14.68,0,0,1,4.85-2.74,18.4,18.4,0,0,1,5.88-.9A28.26,28.26,0,0,1,1016,722a33.28,33.28,0,0,1,8.11,3.8,2.12,2.12,0,0,0,.77.41,3.56,3.56,0,0,0,1.05.14,3,3,0,0,0,2.18-.9,3.07,3.07,0,0,0-.55-4.83,37.57,37.57,0,0,0-9.59-4.41,36.56,36.56,0,0,0-10.42-1.49,24.72,24.72,0,0,0-8.31,1.35,21.18,21.18,0,0,0-6.88,4A16.47,16.47,0,0,0,986.14,733a16.25,16.25,0,0,0,4.26,11,22,22,0,0,0,11.1,6.4l11.73,2.91a17.38,17.38,0,0,1,8.4,4.82,11.73,11.73,0,0,1,3.15,8.09,12.47,12.47,0,0,1-4.73,9.83,16.92,16.92,0,0,1-5.27,3,19.56,19.56,0,0,1-6.37,1,29.63,29.63,0,0,1-18.82-6.55,3.32,3.32,0,0,0-1.82-.55,3.07,3.07,0,0,0-3.09,3.1Z" transform="translate(-304.55 -692.4)"/><path class="cls-1" d="M1065.94,781.35a3.07,3.07,0,0,0,.89,2.19,3.11,3.11,0,0,0,2.19.89h43.46a3.06,3.06,0,0,0,3.1-3.08,3,3,0,0,0-.9-2.09,3.35,3.35,0,0,0-2.2-1h-40.37V753.52h34.1a2.69,2.69,0,0,0,2.67-1.56,3.71,3.71,0,0,0,0-3.06,2.7,2.7,0,0,0-2.67-1.56h-34.1V722.42h40.37a2.66,2.66,0,0,0,2.67-1.56,3.61,3.61,0,0,0,0-3.05,2.66,2.66,0,0,0-2.67-1.56H1069a3.11,3.11,0,0,0-2.19.89,3.07,3.07,0,0,0-.89,2.19Z" transform="translate(-304.55 -692.4)"/><path class="cls-1" d="M1150,781.35a3,3,0,0,0,3.08,3.08h40.28a2.67,2.67,0,0,0,2.67-1.56,3.69,3.69,0,0,0,0-3,2.67,2.67,0,0,0-2.67-1.56h-37.19V718.61a2.68,2.68,0,0,0-1.56-2.67,3.69,3.69,0,0,0-3,0,2.68,2.68,0,0,0-1.56,2.67Z" transform="translate(-304.55 -692.4)"/><path class="cls-2" d="M586.13,740.49v32.16h44.71V740.49l-22.36-20.33Zm51.94-1v33.21h15.31a51.1,51.1,0,0,0,5.14-22.78c0-13.83-4.77-25.84-14.57-35.66a49.48,49.48,0,0,0-70.74,0c-9.8,9.82-14.58,21.83-14.57,35.66a49.24,49.24,0,0,0,14.57,35.8,48.4,48.4,0,0,0,35.37,14.74,49.66,49.66,0,0,0,22.26-5.11V783.07h7.23v14.19c0,1.64-.59,2.46-1.42,2.92a57.61,57.61,0,0,1-68.85-90.94c11.29-11.29,24.82-16.85,40.78-16.84a55.31,55.31,0,0,1,40.63,16.84c11.23,11.25,16.85,24.73,16.84,40.63A55.73,55.73,0,0,1,658.87,778a3.09,3.09,0,0,1-3.18,1.9H582.38a3.17,3.17,0,0,1-3.48-3.48v-37a3.78,3.78,0,0,1,.62-2.24,4.69,4.69,0,0,1,.94-1.31l24.87-22.63a4.82,4.82,0,0,1,2-1.6,2.57,2.57,0,0,1,1.15-.27,2.36,2.36,0,0,1,.86.15,5.05,5.05,0,0,1,2.29,1.72l25,22.69a5.27,5.27,0,0,1,.85,1.19A4,4,0,0,1,638.07,739.44Zm-30.7-27.79a2.85,2.85,0,0,1,1.11-.26A2.42,2.42,0,0,0,607.37,711.65Zm1.19-.26a2.61,2.61,0,0,1,.78.15A2.21,2.21,0,0,0,608.56,711.39Z" transform="translate(-304.55 -692.4)"/></svg>