<svg id="noun-profile-2601911" xmlns="http://www.w3.org/2000/svg" width="22.487" height="26.575" viewBox="0 0 22.487 26.575">
  <path id="Pfad_160" data-name="Pfad 160" d="M205.445,643.69a11.246,11.246,0,0,1,4.542,9.03v3.066a1.022,1.022,0,0,1-1.022,1.022H188.522a1.022,1.022,0,0,1-1.022-1.022V652.72a11.246,11.246,0,0,1,4.542-9.03q.1.1.2.2a9.2,9.2,0,0,0,13.01,0q.1-.1.2-.2Z" transform="translate(-187.5 -630.234)" fill="#fff"/>
  <path id="Pfad_161" data-name="Pfad 161" d="M344.655,164.31a7.155,7.155,0,1,1,7.155-7.155A7.155,7.155,0,0,1,344.655,164.31Z" transform="translate(-333.411 -150)" fill="#fff"/>
</svg>
