<svg xmlns="http://www.w3.org/2000/svg" width="19" height="19" viewBox="0 0 19 19">
  <path id="Differenzmenge_4" data-name="Differenzmenge 4" d="M-3840,233h-15a2,2,0,0,1-2-2V216a2,2,0,0,1,2-2h15a2,2,0,0,1,2,2v15A2,2,0,0,1-3840,233Zm-5.94-8.94a1,1,0,0,0-1,1v2.88a1,1,0,0,0,1,1h2.882a1,1,0,0,0,1-1v-2.88a1,1,0,0,0-1-1Zm-6,0a1,1,0,0,0-1,1v2.88a1,1,0,0,0,1,1h2.881a1,1,0,0,0,1-1v-2.88a1,1,0,0,0-1-1Zm6-6a1,1,0,0,0-1,1v2.879a1,1,0,0,0,1,1h2.882a1,1,0,0,0,1-1v-2.879a1,1,0,0,0-1-1Zm-6,0a1,1,0,0,0-1,1v2.879a1,1,0,0,0,1,1h2.881a1,1,0,0,0,1-1v-2.879a1,1,0,0,0-1-1Z" transform="translate(3857 -214)" fill="#c1c1c1"/>
</svg>
